<svg width="40" height="40" viewBox="0 0 40 40" fill="none" xmlns="http://www.w3.org/2000/svg">
  <rect width="40" height="40" rx="8" fill="#7C3AED"/>
  <path d="M20 10C14.477 10 10 14.477 10 20C10 25.523 14.477 30 20 30C25.523 30 30 25.523 30 20C30 14.477 25.523 10 20 10ZM24.707 23.293L21.414 20L24.707 16.707C25.098 16.316 25.098 15.684 24.707 15.293C24.316 14.902 23.684 14.902 23.293 15.293L20 18.586L16.707 15.293C16.316 14.902 15.684 14.902 15.293 15.293C14.902 15.684 14.902 16.316 15.293 16.707L18.586 20L15.293 23.293C14.902 23.684 14.902 24.316 15.293 24.707C15.488 24.902 15.744 25 16 25C16.256 25 16.512 24.902 16.707 24.707L20 21.414L23.293 24.707C23.488 24.902 23.744 25 24 25C24.256 25 24.512 24.902 24.707 24.707C25.098 24.316 25.098 23.684 24.707 23.293Z" fill="white"/>
</svg>
